<svg width="54" height="149" viewBox="0 0 54 149" fill="none" xmlns="http://www.w3.org/2000/svg">
<path d="M19.4505 2.49384C11.531 13.4875 9.0572 21.0147 12.8653 30.8481C16.3043 39.7283 26.4006 47.4446 34.1393 54.3156C43.7206 62.8227 54.9864 81.827 36.5235 94.117C22.1874 103.66 1.15696 102.356 2.88911 89.655C3.5569 84.7586 12.2759 79.6683 19.3763 79.5758C27.0453 79.4759 32.3161 84.5752 35.2382 88.323C43.0859 98.3877 27.8924 111.337 27.9696 122.591C28.0417 133.107 37.3103 138.098 49.1177 142.467C50.129 142.841 44.5735 144.19 43.2085 144.607C38.2045 146.137 40.6119 146.068 44.3954 144.911C46.8287 144.167 52.2412 143.367 50.2472 141.788C48.8086 140.649 47.6552 137.684 47.1598 136.063" stroke="#EE6C23" stroke-width="5" stroke-linecap="round"/>
</svg>
