<svg width="78" height="93" viewBox="0 0 78 93" fill="none" xmlns="http://www.w3.org/2000/svg">
<path d="M74.6454 79.6926C67.8637 79.94 48.538 80.9011 45.3778 69.3948C44.0628 64.6071 44.5948 57.3578 47.3347 53.4489C53.2186 45.0545 67.6022 51.1211 59.2454 61.623C54.5587 67.5127 45.5021 65.704 39.0988 64.3235C29.66 62.2886 23.7999 55.4041 18.12 46.9289C15.2355 42.6247 5.71082 19.6224 7.09467 20.0466" stroke="#EE6C23" stroke-width="5" stroke-linecap="round"/>
<path d="M3.657 15.3546C5.07043 15.8468 15.8073 20.0053 14.5447 19.3062C12.892 18.3911 11.1149 17.6362 9.55965 16.4999C7.7196 15.1555 5.63967 14.3398 3.93078 12.7833C2.43124 11.4175 2.72234 22.578 3.1654 24.4971" stroke="#EE6C23" stroke-width="5" stroke-linecap="round"/>
</svg>
